PathFileType	4	(X/Y/Z)	C:/Users/opensim2020/Desktop/walking_exp_matlab/subject03_walking11_straight_04.trc	
DataRate	CameraRate	NumFrames	NumMarkers	Units	OrigDataRate	OrigDataStartFrame	OrigNumFrames	
100.00	100.00	6	46	mm	100.00	3791	350	
Frame#	Time	LFHD			RFHD			LBHD			RBHD			C7			T10			CLAV			STRN			RBAK			LSHO			LUPA			LELB			LFRM			LWRA			LWRB			LFIN			RSHO			RUPA			RELB			RFRM			RWRA			RWRB			RFIN			LASI			RASI			LPSI			RPSI			LTHI			LKNE			LTIB			LANK			LHEE			LTOE			RTHI			RKNE			RTIB			RANK			RHEE			RTOE			*39			*40			*41			*42			*43			*44			*45			
		X1	Y1	Z1	X2	Y2	Z2	X3	Y3	Z3	X4	Y4	Z4	X5	Y5	Z5	X6	Y6	Z6	X7	Y7	Z7	X8	Y8	Z8	X9	Y9	Z9	X10	Y10	Z10	X11	Y11	Z11	X12	Y12	Z12	X13	Y13	Z13	X14	Y14	Z14	X15	Y15	Z15	X16	Y16	Z16	X17	Y17	Z17	X18	Y18	Z18	X19	Y19	Z19	X20	Y20	Z20	X21	Y21	Z21	X22	Y22	Z22	X23	Y23	Z23	X24	Y24	Z24	X25	Y25	Z25	X26	Y26	Z26	X27	Y27	Z27	X28	Y28	Z28	X29	Y29	Z29	X30	Y30	Z30	X31	Y31	Z31	X32	Y32	Z32	X33	Y33	Z33	X34	Y34	Z34	X35	Y35	Z35	X36	Y36	Z36	X37	Y37	Z37	X38	Y38	Z38	X39	Y39	Z39	X40	Y40	Z40	X41	Y41	Z41	X42	Y42	Z42	X43	Y43	Z43	X44	Y44	Z44	X45	Y45	Z45	X46	Y46	Z46	

44	0.430	-914.79504	816.35138	1605.89844	-1046.43982	829.15485	1617.97485	-907.54767	949.29779	1577.99438	-1037.96008	956.32703	1588.70251	-968.56580	1000.91968	1421.79065	-972.31403	1049.45801	1108.43237	-980.61444	884.01331	1337.78247	-977.86328	847.44812	1172.39661	-1063.75061	1070.06958	1248.83960	-822.55536	913.61670	1374.93982	-749.23010	886.23834	1183.98975	-738.35431	849.73523	1066.36646	-742.94574	794.43427	948.53656	-775.32642	752.96893	837.23138	-720.88251	767.72974	839.85175	-731.11523	733.19556	763.11487	-1135.50208	939.26575	1366.23657	-1212.61389	951.08258	1145.48242	-1227.52905	936.50708	1033.91455	-1227.27417	911.08081	899.66248	-1190.57849	872.92047	808.26050	-1233.29761	905.36749	799.79047	-1222.89124	875.71069	731.78235	-859.20898	883.62640	942.53571	-1097.82813	887.10223	941.91815	-908.97113	1046.70435	966.37012	-1057.30347	1047.81677	968.22162	-827.84528	946.31403	640.94977	-869.53534	946.90027	463.36957	-871.15723	1005.25598	275.80530	-915.80945	1027.74255	66.52838	-953.21234	1067.01575	31.31623	-936.93536	874.09875	30.32171	-1151.63806	871.93628	652.49261	-1129.08508	800.19452	486.96649	-1133.83276	881.32587	312.68097	-1093.47620	967.79279	114.10801	-1040.90552	1019.38007	93.13849	-1080.21631	848.68451	41.53199	-952.33759	893.14032	1682.57361																		 
45	0.440	-915.51733	809.50952	1605.53918	-1047.08215	822.69153	1617.31458	-907.85413	942.24268	1577.56409	-1038.24548	949.85284	1588.09363	-968.34857	994.35492	1421.30835	-971.91034	1043.00549	1107.96558	-980.50739	877.50293	1337.28284	-977.59998	840.97095	1171.84912	-1062.85852	1063.94958	1248.12964	-822.45911	906.68140	1374.63318	-748.57782	878.34839	1184.23584	-737.57703	841.15149	1066.85046	-742.60706	783.80652	950.10773	-775.79376	739.58295	839.98993	-721.52838	755.08282	841.77032	-732.32324	718.62286	766.05878	-1135.38477	933.44287	1365.32056	-1212.24695	946.17010	1144.53967	-1227.21484	932.00720	1032.89929	-1227.08215	907.29755	898.50079	-1190.60864	869.59442	806.91705	-1233.17969	902.16876	798.59125	-1222.81775	872.90881	730.40344	-858.90533	876.98303	942.05499	-1097.55432	880.70428	941.58002	-908.66022	1040.22375	965.87219	-1056.93274	1041.45239	967.62238	-828.07697	941.15918	640.47150	-869.46783	943.84058	463.02371	-871.14288	1003.62720	275.84171	-915.84961	1027.60132	66.64897	-953.24744	1067.01147	31.44579	-936.88763	874.05206	30.31089	-1151.74048	864.26379	652.65466	-1128.41614	791.49390	487.36826	-1132.91663	866.43921	310.11325	-1092.10852	944.14508	108.08354	-1039.21790	994.54211	84.99347	-1078.64136	821.72614	40.48214																					 
46	0.450	-916.10205	802.75659	1605.08765	-1047.77100	816.17102	1616.57019	-908.13611	935.52527	1577.11755	-1038.56726	943.32300	1587.32983	-968.14813	987.67822	1420.75806	-971.55853	1036.47192	1107.41150	-980.36310	871.10474	1336.81055	-977.33594	834.44781	1171.19897	-1061.97498	1057.77466	1247.34460	-822.43616	899.68256	1374.31714	-748.10760	870.71375	1184.38525	-736.88556	832.73297	1067.22009	-742.45685	773.38776	951.66089	-776.42328	726.78229	843.04059	-722.39191	742.71515	843.59357	-733.73596	704.28906	769.03241	-1135.28564	927.55237	1364.37012	-1211.89990	941.20441	1143.54956	-1226.77136	927.41754	1031.88855	-1226.91248	903.47675	897.27130	-1190.57495	866.24591	805.42010	-1233.10315	898.99213	797.34766	-1222.86719	870.09808	728.91534	-858.68518	870.42664	941.48700	-1097.32776	874.26007	941.10297	-908.40594	1033.69348	965.30347	-1056.62524	1035.01233	966.84509	-827.99890	936.35901	640.07983	-869.34216	940.67334	462.64807	-871.13220	1002.03033	275.84827	-915.89832	1027.47217	66.77768	-953.20093	1067.18225	31.66188	-936.87146	874.16840	30.26209	-1151.78552	856.62103	652.56909	-1127.86841	783.21704	487.50336	-1132.01660	851.67657	307.55786	-1090.51465	919.75018	102.00090	-1037.53516	969.20233	77.19941	-1077.40051	794.90204	39.73093	-953.39386	879.44104	1681.85413																		 
47	0.460	-916.80481	795.91162	1604.60217	-1048.48840	809.63562	1615.74438	-908.47247	928.80115	1576.63293	-1038.94470	936.76123	1586.48425	-968.00989	981.01117	1420.14978	-971.34613	1029.88062	1106.77234	-980.34442	864.47009	1336.03955	-977.18427	827.86346	1170.47717	-1061.18396	1051.52393	1246.52881	-822.47418	892.77161	1373.90820	-747.67566	862.98492	1184.40979	-736.34448	824.38727	1067.52832	-742.43549	763.17371	953.05585	-777.26501	714.14960	845.90546	-723.37622	730.43866	845.40930	-735.38507	690.22064	772.00629	-1135.24329	921.57336	1363.38904	-1211.50476	936.08380	1142.48279	-1226.47363	922.71899	1030.79956	-1226.72278	899.61389	895.99530	-1190.80371	862.90350	803.76239	-1233.04053	895.74603	796.01575	-1222.90869	867.28156	727.37311	-858.56091	863.97504	940.76752	-1097.21985	867.78937	940.36688	-908.19543	1027.13794	964.67523	-1056.45740	1028.61499	965.97559	-828.10059	931.53833	639.69275	-869.36377	937.48438	462.25351	-871.13971	1000.35718	275.89056	-915.87073	1027.32031	66.93320	-953.29010	1067.20068	31.89583	-936.57336	874.26526	30.47397	-1151.82385	849.43561	652.18347	-1127.36987	775.28723	487.36819	-1131.36584	836.98370	304.99417	-1089.22424	895.56152	96.55943	-1036.01355	943.52936	69.78975	-1076.43823	767.90741	39.56416	-954.33307	873.07007	1680.75647																		 
48	0.470	-917.63129	789.07605	1604.07642	-1049.26758	803.07166	1614.86719	-908.89722	921.78455	1575.99573	-1039.36536	930.13739	1585.52686	-967.93085	974.18597	1419.41736	-971.27600	1023.32977	1106.10925	-980.56195	857.60034	1335.18518	-977.03143	821.24030	1169.73035	-1060.54016	1045.21216	1245.67175	-822.54962	885.62164	1373.40723	-747.34015	855.26630	1184.37012	-735.89429	816.19818	1067.69116	-742.58484	753.16089	954.43231	-778.19312	702.11841	848.78729	-724.57159	718.52197	847.13019	-737.20520	676.45496	774.96338	-1135.19788	915.49451	1362.31421	-1211.08093	930.88782	1141.38245	-1226.06812	917.87830	1029.64417	-1226.53992	895.72327	894.71741	-1190.78979	859.37811	802.28131	-1232.97766	892.54651	794.69806	-1222.96460	864.44690	725.79742	-858.48877	857.30957	940.10083	-1097.17627	861.21210	939.50299	-908.05670	1020.54138	963.95880	-1056.33374	1022.09650	965.00903	-828.11279	926.75885	639.23950	-869.29956	934.25452	461.86929	-871.09564	998.57092	275.90613	-915.91010	1027.08423	67.11523	-953.36035	1067.21326	32.16575	-936.56866	874.24512	30.44899	-1151.90088	842.76508	651.40045	-1126.69775	767.77533	486.90839	-1130.54565	822.53033	302.45953	-1088.06506	871.33502	91.60902	-1034.56750	917.82129	62.99290	-1075.79272	741.21747	39.91882	-955.14899	866.26770	1680.01099																		 
49	0.480	-918.45148	782.10242	1603.49207	-1050.06482	796.45306	1613.93140	-909.35822	915.03192	1575.40454	-1039.85132	923.48145	1584.52917	-967.87799	967.29596	1418.58936	-971.21893	1016.62677	1105.32031	-980.63275	850.83075	1334.23804	-977.00366	814.58392	1168.78894	-1059.95203	1038.74597	1244.80127	-822.70392	878.58038	1372.81409	-747.07892	847.70203	1184.16711	-735.58093	808.16760	1067.72693	-742.99512	743.33875	955.60101	-779.42072	690.33960	851.37927	-725.91425	706.84070	848.78723	-739.19006	662.96478	777.87604	-1135.22888	909.26947	1361.25110	-1210.66333	925.57129	1140.21887	-1225.62256	912.92126	1028.39905	-1226.34412	891.66156	893.25818	-1190.87000	855.80383	800.47760	-1232.91724	889.27515	793.23450	-1223.07312	861.68146	724.17664	-858.49359	850.65210	939.33612	-1097.20813	854.61926	938.39349	-907.96478	1013.90601	963.19812	-1056.27698	1015.49194	963.93701	-828.90125	921.48242	638.78528	-869.31415	930.95276	461.51660	-871.05090	996.70660	275.93069	-915.92749	1026.85779	67.25047	-953.37512	1067.22070	32.45930	-936.56696	874.20270	30.39742	-1152.05640	836.55145	650.16772	-1126.17200	760.56464	486.20035	-1130.09338	808.10815	300.08179	-1087.24146	847.12653	87.12994	-1033.22278	891.95050	56.75705	-1075.37366	714.95551	40.41045	-955.89465	859.67426	1679.13843																		 
